<?xml version="1.0" encoding="utf-8"?>
<!-- Generator: Adobe Illustrator 25.2.0, SVG Export Plug-In . SVG Version: 6.00 Build 0)  -->
<svg version="1.1" id="Logo_Art" xmlns="http://www.w3.org/2000/svg" xmlns:xlink="http://www.w3.org/1999/xlink" x="0px" y="0px"
	 viewBox="0 0 344.9 48" style="enable-background:new 0 0 344.9 48;" xml:space="preserve">
<style type="text/css">
	.st0{fill:#1D252D;}
	.st1{fill:#00BF6F;}
	.st2{fill:#00C771;}
</style>
<path class="st0" d="M90,2.3h20.2c8.9,0,15.6,6.4,15.6,15c0,6.3-3.7,11.3-9.3,13.5l10.7,16.4h-12.5l-9.4-15.4h-5.2v15.4H90V2.3z
	 M100.1,11.8v11.3h10c3.1,0,5.5-2.4,5.5-5.6c0-3.3-2.3-5.7-5.5-5.7C110.1,11.8,100.1,11.8,100.1,11.8z"/>
<path class="st0" d="M128.9,30.6c0-9.9,7.7-17.4,17.9-17.4c10.1,0,17.9,7.4,17.9,17.6c0,0.9-0.1,2-0.3,2.9H139
	c1,3.8,4.1,6.2,8.1,6.2c3.1,0,5.5-1.3,6.9-3.1h10.1C161.7,43.5,155,48,146.8,48C136.6,48,128.9,40.5,128.9,30.6z M139.1,27.4h15.4
	c-1-3.6-4-6-7.7-6S140.1,23.7,139.1,27.4z"/>
<path class="st0" d="M172.3,22.7h-5V14h5v-2.2c0-7.8,4.4-11.8,13-11.8h4.1v8.7h-3.2c-2.9,0-4.4,1.5-4.4,4.2v1.2h7.2v8.7h-7.2v24.5
	h-9.5V22.7z M194.8,0.4h9.5v46.8h-9.5C194.8,47.2,194.8,0.4,194.8,0.4z"/>
<path class="st0" d="M209.6,30.6c0-9.9,7.7-17.4,17.9-17.4c10.1,0,17.9,7.4,17.9,17.6c0,0.9-0.1,2-0.3,2.9h-25.4
	c1,3.8,4.1,6.2,8.1,6.2c3.1,0,5.5-1.3,6.9-3.1h10.1c-2.5,6.7-9.1,11.3-17.3,11.3C217.3,48,209.6,40.5,209.6,30.6L209.6,30.6z
	 M219.8,27.4h15.4c-1-3.6-4-6-7.7-6S220.9,23.7,219.8,27.4z"/>
<path class="st0" d="M257.4,30.6L246,14.1h11.5l6.4,9.8l6.4-9.8h11.4l-11.4,16.5l11.6,16.7h-11.5l-6.6-10l-6.5,10h-11.4L257.4,30.6
	L257.4,30.6z"/>
<path class="st1" d="M302.4,2.3h11.9l16.9,44.9h-11.1l-2.7-7.9h-18.3l-2.8,7.9h-10.8L302.4,2.3z M314.1,30.1l-5.9-16.6l-5.9,16.6
	H314.1L314.1,30.1z"/>
<path class="st1" d="M334.8,2.3h10.1v44.9h-10.1V2.3z"/>
<path class="st1" d="M49.5,2.3c-3.4,0-6.6,0.8-9.5,2.1c5.8,4.9,9.4,12.2,9.4,20.4l0,0c0,8.1-3.6,15.4-9.3,20.4
	c2.9,1.3,6.1,2.1,9.4,2.1l0,0C61.9,47.2,72,37.2,72,24.8V2.3L49.5,2.3L49.5,2.3z"/>
<path class="st0" d="M22.5,2.3L22.5,2.3C34.9,2.3,45,12.4,45,24.8l0,0c0,12.4-10.1,22.5-22.5,22.5H0V24.8C0,12.4,10.1,2.3,22.5,2.3z
	"/>
<circle class="st2" cx="12.5" cy="24.7" r="3.6"/>
<circle class="st2" cx="22.4" cy="24.7" r="3.6"/>
<circle class="st2" cx="32.4" cy="24.7" r="3.6"/>
</svg>
